#!OML:ASF E:\id_vita\Project 1\Capture day 1\Session 1\Female.ASF
:FULLY-SPECIFIED
:DEGREES
1059
root 21.4132 16.5701 -5.15458 -149.498 -4.32862 -181.486
lowerback -13.7142 -1.6326 -1.80752
upperback -6.44201 -2.83153 2.25585
thorax 1.09205 -1.71671 2.95628
lowerneck -3.64188 -1.63678 -8.28099
upperneck -6.69713 -1.47809 4.36386
head -1.39914 -0.457896 2.85029
rclavicle 8.84592e-015 9.14409e-015
rhumerus 63.3051 -7.93522 -40.8434
rradius 76.4069
rwrist -27.7277
rhand -50.0315 18.9919
rfingers 7.12502
rthumb -22.6193 -9.70276
lclavicle 8.84592e-015 9.14409e-015
lhumerus 84.6887 1.50846 48.2872
lradius 24.3292
lwrist -32.5603
lhand -33.7092 34.2545
lfingers 7.12502
lthumb -6.89886 64.1221
rfemur -43.869 6.13358 20.4333
rtibia 29.2351
rfoot -10.5006 -10.3095
rtoes -1.74497
lfemur -11.8255 -7.91216 -20.9739
ltibia 20.9549
lfoot -3.06962 -5.49505
ltoes -11.2116
1060
root 21.4132 16.5674 -5.16143 -149.432 -4.66468 -181.554
lowerback -13.828 -1.04633 -1.91525
upperback -6.51445 -2.03255 1.70783
thorax 1.00741 -1.32302 2.56139
lowerneck -2.67838 -1.91159 -5.62935
upperneck -7.67997 -2.74447 2.4992
head -1.85251 -1.42726 1.77978
rclavicle -1.05356e-014 -8.34896e-015
rhumerus 61.235 -9.66651 -41.3773
rradius 78.5458
rwrist -27.4146
rhand -50.6401 19.1986
rfingers 7.12502
rthumb -23.2033 -9.42365
lclavicle -1.05356e-014 -8.34896e-015
lhumerus 86.2888 -0.625471 50.9686
lradius 23.5883
lwrist -34.2711
lhand -33.3329 32.6968
lfingers 7.12502
lthumb -6.53557 62.576
rfemur -43.902 5.99827 20.4897
rtibia 29.2267
rfoot -10.1426 -10.6542
rtoes -3.45945
lfemur -11.8707 -7.763 -20.8533
ltibia 20.8388
lfoot -3.12874 -6.02923
ltoes -11.8089
1061
root 21.4103 16.5692 -5.16942 -149.376 -4.96364 -181.675
lowerback -13.8692 -1.29368 -1.85603
upperback -6.59172 -2.38688 1.92236
thorax 0.975702 -1.50395 2.70024
lowerneck -3.23958 -1.97729 -7.46281
upperneck -7.32015 -2.72011 3.54069
head -1.61539 -1.38912 2.43785
rclavicle 1.16289e-014 -1.86858e-014
rhumerus 61.5511 -9.61436 -42.7706
rradius 80.2925
rwrist -26.2752
rhand -51.0841 19.3123
rfingers 7.12502
rthumb -23.6293 -9.25572
lclavicle 1.16289e-014 -1.86858e-014
lhumerus 85.8206 -0.403926 52.0331
lradius 23.5411
lwrist -35.1597
lhand -33.4986 31.6117
lfingers 7.12502
lthumb -6.69559 61.4859
rfemur -43.909 5.85608 20.4461
rtibia 29.2248
rfoot -9.95259 -10.9271
rtoes -4.20087
lfemur -11.8538 -8.02606 -20.7894
ltibia 20.6822
lfoot -3.11022 -6.18689
ltoes -12.1227
1062
root 21.408 16.5721 -5.17761 -149.321 -5.1833 -181.763
lowerback -13.8414 -0.505311 -2.13091
upperback -6.79892 -1.32029 1.30864
thorax 0.665983 -0.97888 2.37522
lowerneck -2.56029 -2.58528 -4.06522
upperneck -7.65771 -3.71429 1.4386
head -1.8604 -1.92833 1.17106
rclavicle -1.15295e-014 8.74653e-015
rhumerus 59.2658 -11.5991 -42.9641
rradius 82.0199
rwrist -25.363
rhand -51.6072 19.7306
rfingers 7.12502
rthumb -24.1309 -8.7717
lclavicle -1.15295e-014 8.74653e-015
lhumerus 87.0172 -2.72759 52.4427
lradius 23.67
lwrist -34.6914
lhand -33.8355 31.0299
lfingers 7.12502
lthumb -7.0208 60.8934
rfemur -43.9081 5.70299 20.4206
rtibia 29.2264
rfoot -10.082 -11.0445
rtoes -3.23365
lfemur -11.8057 -8.30694 -20.7202
ltibia 20.4977
lfoot -3.05776 -6.26775
ltoes -11.9231
1063
root 21.4092 16.5718 -5.18492 -149.267 -5.37489 -181.782
lowerback -13.8576 -0.589454 -2.18689
upperback -6.89789 -1.44717 1.49895
thorax 0.58244 -1.0442 2.58903
lowerneck -2.27554 -2.60076 -4.43325
upperneck -8.11205 -3.78127 1.36425
head -2.05288 -1.95663 1.22584
rclavicle -1.23246e-014 -1.98785e-015
rhumerus 59.4951 -11.7467 -44.1204
rradius 83.6853
rwrist -24.7828
rhand -51.7246 20.1216
rfingers 7.12502
rthumb -24.2434 -8.36581
lclavicle -1.23246e-014 -1.98785e-015
lhumerus 86.7599 -2.70641 52.8933
lradius 23.5071
lwrist -34.4891
lhand -33.9198 30.5173
lfingers 7.12502
lthumb -7.10215 60.3781
rfemur -43.9267 5.59146 20.476
rtibia 29.2452
rfoot -10.1886 -11.0429
rtoes -2.52637
lfemur -11.7396 -8.59129 -20.6013
ltibia 20.2866
lfoot -3.044 -6.29302
ltoes -12.441
1064
root 21.4127 16.5706 -5.19404 -149.231 -5.50035 -181.769
lowerback -13.9447 -0.65071 -2.02468
upperback -6.90967 -1.55297 1.5328
thorax 0.621376 -1.10308 2.51594
lowerneck -2.13171 -2.52715 -4.88763
upperneck -8.51896 -3.70625 1.57818
head -2.20547 -1.91733 1.38376
rclavicle 7.45443e-015 -1.43125e-014
rhumerus 59.9699 -11.8721 -45.8044
rradius 85.2179
rwrist -24.5934
rhand -51.4631 20.7225
rfingers 7.12502
rthumb -23.9928 -7.79815
lclavicle 7.45443e-015 -1.43125e-014
lhumerus 86.5221 -2.52299 52.3486
lradius 23.6958
lwrist -33.5785
lhand -34.1143 30.0762
lfingers 7.12502
lthumb -7.28989 59.9307
rfemur -43.9359 5.5598 20.5354
rtibia 29.2801
rfoot -10.2282 -11.0405
rtoes -2.56873
lfemur -11.6398 -8.86502 -20.4858
ltibia 20.0777
lfoot -3.04019 -6.29029
ltoes -13.1882
1065
root 21.4148 16.5713 -5.20669 -149.162 -5.58645 -181.799
lowerback -14.0624 -0.773315 -1.87418
upperback -6.93261 -1.74287 1.59268
thorax 0.669966 -1.205 2.46367
lowerneck -2.24569 -2.40363 -5.66085
upperneck -8.66896 -3.52778 1.99742
head -2.22676 -1.82134 1.6537
rclavicle 1.75924e-014 -1.55052e-014
rhumerus 60.6643 -11.6568 -47.552
rradius 86.7451
rwrist -24.7551
rhand -51.3823 21.8016
rfingers 7.12502
rthumb -23.9153 -6.7292
lclavicle 1.75924e-014 -1.55052e-014
lhumerus 86.0224 -2.13353 51.4355
lradius 24.0944
lwrist -32.3269
lhand -34.4529 29.8978
lfingers 7.12502
lthumb -7.61675 59.7406
rfemur -43.9685 5.65073 20.4491
rtibia 29.321
rfoot -10.2548 -11.2319
rtoes -2.23255
lfemur -11.5873 -9.23151 -20.4106
ltibia 19.8956
lfoot -2.84705 -6.16124
ltoes -12.723
1066
root 21.4131 16.5724 -5.21575 -149.005 -5.81037 -181.937
lowerback -14.1831 -0.855667 -1.76385
upperback -7.01885 -1.88086 1.54641
thorax 0.647262 -1.28405 2.33161
lowerneck -2.23639 -2.43129 -6.08962
upperneck -8.83019 -3.54893 2.42063
head -2.27051 -1.83134 1.87151
rclavicle -2.08724e-015 0
rhumerus 61.2504 -11.6288 -49.3813
rradius 87.8963
rwrist -24.552
rhand -51.6517 21.7194
rfingers 7.12502
rthumb -24.1736 -6.77731
lclavicle -2.08724e-015 0
lhumerus 85.7692 -2.11285 51.4429
lradius 24.147
lwrist -32.0739
lhand -34.7872 29.3954
lfingers 7.12502
lthumb -7.93937 59.2263
rfemur -44.0941 5.69912 20.2418
rtibia 29.3581
rfoot -10.1621 -11.5528
rtoes -1.52103
lfemur -11.688 -9.71498 -20.3336
ltibia 19.7456
lfoot -2.52962 -5.99281
ltoes -11.3449
1067
root 21.414 16.5731 -5.22187 -148.883 -6.04736 -182.093
lowerback -14.2329 -1.41844 -1.58089
upperback -6.99706 -2.65696 1.92332
thorax 0.748846 -1.67205 2.50443
lowerneck -3.11914 -1.96873 -7.02907
upperneck -8.57118 -2.89012 2.5426
head -2.05236 -1.49305 2.0532
rclavicle -9.54166e-015 -1.74931e-014
rhumerus 63.0792 -10.3907 -51.6941
rradius 88.948
rwrist -24.6402
rhand -51.7307 22.2596
rfingers 7.12502
rthumb -24.2493 -6.22703
lclavicle -9.54166e-015 -1.74931e-014
lhumerus 84.845 -0.788528 51.6117
lradius 24.0144
lwrist -32.3769
lhand -35.1424 28.567
lfingers 7.12502
lthumb -8.28223 58.3846
rfemur -44.1859 5.72455 20.0523
rtibia 29.3804
rfoot -9.98821 -11.8815
rtoes -1.28074
lfemur -11.7808 -9.92325 -20.2723
ltibia 19.6358
lfoot -2.34069 -6.08242
ltoes -10.4116
